<mxfile host="app.diagrams.net" modified="2021-02-23T13:05:51.762Z" agent="5.0 (Windows NT 10.0; Win64; x64) AppleWebKit/537.36 (KHTML, like Gecko) Chrome/88.0.4324.182 Safari/537.36 Edg/88.0.705.74" etag="c4a28TAW86sqSYpZw8eG" version="14.2.3" type="github">
  <diagram id="xKUTsaIn_5PL5V8re3l2" name="Page-1">
    <mxGraphModel dx="950" dy="1368" grid="1" gridSize="10" guides="1" tooltips="1" connect="1" arrows="1" fold="1" page="1" pageScale="1" pageWidth="1169" pageHeight="827" math="0" shadow="0">
      <root>
        <mxCell id="0" />
        <mxCell id="1" parent="0" />
        <mxCell id="ft5vaVM4qjosO1FMP7sU-8" value="" style="group" vertex="1" connectable="0" parent="1">
          <mxGeometry x="200" y="-540" width="140" height="100" as="geometry" />
        </mxCell>
        <mxCell id="ft5vaVM4qjosO1FMP7sU-2" value="Universal Robot Platform Module" style="rounded=1;whiteSpace=wrap;html=1;" vertex="1" parent="ft5vaVM4qjosO1FMP7sU-8">
          <mxGeometry y="20" width="120" height="60" as="geometry" />
        </mxCell>
        <mxCell id="ft5vaVM4qjosO1FMP7sU-38" style="edgeStyle=orthogonalEdgeStyle;rounded=0;orthogonalLoop=1;jettySize=auto;html=1;exitX=0.25;exitY=1;exitDx=0;exitDy=0;" edge="1" parent="1" source="ft5vaVM4qjosO1FMP7sU-21" target="ft5vaVM4qjosO1FMP7sU-2">
          <mxGeometry relative="1" as="geometry" />
        </mxCell>
        <mxCell id="ft5vaVM4qjosO1FMP7sU-54" style="edgeStyle=orthogonalEdgeStyle;rounded=0;orthogonalLoop=1;jettySize=auto;html=1;exitX=0.5;exitY=1;exitDx=0;exitDy=0;entryX=1;entryY=0.5;entryDx=0;entryDy=0;" edge="1" parent="1" source="ft5vaVM4qjosO1FMP7sU-21" target="ft5vaVM4qjosO1FMP7sU-2">
          <mxGeometry relative="1" as="geometry" />
        </mxCell>
        <mxCell id="ft5vaVM4qjosO1FMP7sU-21" value="Communication protocol for Universal Robot platform" style="rounded=0;whiteSpace=wrap;html=1;strokeWidth=1;" vertex="1" parent="1">
          <mxGeometry x="320" y="-600" width="160" height="40" as="geometry" />
        </mxCell>
        <mxCell id="ft5vaVM4qjosO1FMP7sU-9" value="" style="group" vertex="1" connectable="0" parent="1">
          <mxGeometry x="340" y="-720" width="140" height="100" as="geometry" />
        </mxCell>
        <mxCell id="ft5vaVM4qjosO1FMP7sU-1" value="Computer Interface Module" style="rounded=1;whiteSpace=wrap;html=1;" vertex="1" parent="ft5vaVM4qjosO1FMP7sU-9">
          <mxGeometry y="20" width="120" height="60" as="geometry" />
        </mxCell>
        <mxCell id="ft5vaVM4qjosO1FMP7sU-42" style="edgeStyle=orthogonalEdgeStyle;rounded=0;orthogonalLoop=1;jettySize=auto;html=1;exitX=0.75;exitY=1;exitDx=0;exitDy=0;entryX=1;entryY=0.5;entryDx=0;entryDy=0;" edge="1" parent="1" source="ft5vaVM4qjosO1FMP7sU-20" target="ft5vaVM4qjosO1FMP7sU-29">
          <mxGeometry relative="1" as="geometry" />
        </mxCell>
        <mxCell id="ft5vaVM4qjosO1FMP7sU-20" value="Communication protocol for other modules" style="rounded=0;whiteSpace=wrap;html=1;strokeWidth=1;" vertex="1" parent="1">
          <mxGeometry x="520" y="-600" width="140" height="40" as="geometry" />
        </mxCell>
        <mxCell id="ft5vaVM4qjosO1FMP7sU-28" value="" style="group" vertex="1" connectable="0" parent="1">
          <mxGeometry x="460" y="-530" width="140" height="100" as="geometry" />
        </mxCell>
        <mxCell id="ft5vaVM4qjosO1FMP7sU-29" value="Other modules" style="rounded=1;whiteSpace=wrap;html=1;" vertex="1" parent="ft5vaVM4qjosO1FMP7sU-28">
          <mxGeometry y="10" width="120" height="60" as="geometry" />
        </mxCell>
        <mxCell id="ft5vaVM4qjosO1FMP7sU-40" style="edgeStyle=orthogonalEdgeStyle;rounded=0;orthogonalLoop=1;jettySize=auto;html=1;exitX=0.5;exitY=0;exitDx=0;exitDy=0;entryX=0;entryY=0.5;entryDx=0;entryDy=0;" edge="1" parent="1" source="ft5vaVM4qjosO1FMP7sU-32" target="ft5vaVM4qjosO1FMP7sU-1">
          <mxGeometry relative="1" as="geometry" />
        </mxCell>
        <mxCell id="ft5vaVM4qjosO1FMP7sU-32" value="Communication protocol for computer interface&amp;nbsp;" style="rounded=0;whiteSpace=wrap;html=1;strokeWidth=1;" vertex="1" parent="1">
          <mxGeometry x="140" y="-600" width="140" height="40" as="geometry" />
        </mxCell>
        <mxCell id="ft5vaVM4qjosO1FMP7sU-37" style="edgeStyle=orthogonalEdgeStyle;rounded=0;orthogonalLoop=1;jettySize=auto;html=1;exitX=0.5;exitY=1;exitDx=0;exitDy=0;entryX=0.5;entryY=0;entryDx=0;entryDy=0;dashed=1;" edge="1" parent="1" source="ft5vaVM4qjosO1FMP7sU-1" target="ft5vaVM4qjosO1FMP7sU-21">
          <mxGeometry relative="1" as="geometry" />
        </mxCell>
        <mxCell id="ft5vaVM4qjosO1FMP7sU-39" style="edgeStyle=orthogonalEdgeStyle;rounded=0;orthogonalLoop=1;jettySize=auto;html=1;exitX=0;exitY=0.5;exitDx=0;exitDy=0;entryX=0.25;entryY=1;entryDx=0;entryDy=0;dashed=1;" edge="1" parent="1" source="ft5vaVM4qjosO1FMP7sU-2" target="ft5vaVM4qjosO1FMP7sU-32">
          <mxGeometry relative="1" as="geometry" />
        </mxCell>
        <mxCell id="ft5vaVM4qjosO1FMP7sU-41" style="edgeStyle=orthogonalEdgeStyle;rounded=0;orthogonalLoop=1;jettySize=auto;html=1;exitX=1;exitY=0.5;exitDx=0;exitDy=0;entryX=0.5;entryY=0;entryDx=0;entryDy=0;dashed=1;" edge="1" parent="1" source="ft5vaVM4qjosO1FMP7sU-1" target="ft5vaVM4qjosO1FMP7sU-20">
          <mxGeometry relative="1" as="geometry" />
        </mxCell>
        <mxCell id="ft5vaVM4qjosO1FMP7sU-43" style="edgeStyle=orthogonalEdgeStyle;rounded=0;orthogonalLoop=1;jettySize=auto;html=1;exitX=0;exitY=0.5;exitDx=0;exitDy=0;entryX=0.75;entryY=1;entryDx=0;entryDy=0;dashed=1;" edge="1" parent="1" source="ft5vaVM4qjosO1FMP7sU-29" target="ft5vaVM4qjosO1FMP7sU-21">
          <mxGeometry relative="1" as="geometry" />
        </mxCell>
        <mxCell id="ft5vaVM4qjosO1FMP7sU-45" value="1" style="ellipse;whiteSpace=wrap;html=1;aspect=fixed;strokeWidth=1;" vertex="1" parent="1">
          <mxGeometry x="410" y="-630" width="20" height="20" as="geometry" />
        </mxCell>
        <mxCell id="ft5vaVM4qjosO1FMP7sU-46" value="1" style="ellipse;whiteSpace=wrap;html=1;aspect=fixed;strokeWidth=1;" vertex="1" parent="1">
          <mxGeometry x="293" y="-565" width="20" height="20" as="geometry" />
        </mxCell>
        <mxCell id="ft5vaVM4qjosO1FMP7sU-47" value="2" style="ellipse;whiteSpace=wrap;html=1;aspect=fixed;strokeWidth=1;" vertex="1" parent="1">
          <mxGeometry x="150" y="-530" width="20" height="20" as="geometry" />
        </mxCell>
        <mxCell id="ft5vaVM4qjosO1FMP7sU-49" value="2" style="ellipse;whiteSpace=wrap;html=1;aspect=fixed;strokeWidth=1;" vertex="1" parent="1">
          <mxGeometry x="180" y="-650" width="20" height="20" as="geometry" />
        </mxCell>
        <mxCell id="ft5vaVM4qjosO1FMP7sU-50" value="3" style="ellipse;whiteSpace=wrap;html=1;aspect=fixed;strokeWidth=1;" vertex="1" parent="1">
          <mxGeometry x="550" y="-660" width="20" height="20" as="geometry" />
        </mxCell>
        <mxCell id="ft5vaVM4qjosO1FMP7sU-51" value="3" style="ellipse;whiteSpace=wrap;html=1;aspect=fixed;strokeWidth=1;" vertex="1" parent="1">
          <mxGeometry x="630" y="-520" width="20" height="20" as="geometry" />
        </mxCell>
        <mxCell id="ft5vaVM4qjosO1FMP7sU-52" value="4" style="ellipse;whiteSpace=wrap;html=1;aspect=fixed;strokeWidth=1;" vertex="1" parent="1">
          <mxGeometry x="430" y="-480" width="20" height="20" as="geometry" />
        </mxCell>
        <mxCell id="ft5vaVM4qjosO1FMP7sU-55" value="4" style="ellipse;whiteSpace=wrap;html=1;aspect=fixed;strokeWidth=1;" vertex="1" parent="1">
          <mxGeometry x="360" y="-480" width="20" height="20" as="geometry" />
        </mxCell>
      </root>
    </mxGraphModel>
  </diagram>
</mxfile>
